<svg width="313" height="159" viewBox="0 0 313 159" fill="none" xmlns="http://www.w3.org/2000/svg">
<path d="M31.1659 140.879H68.6693V157.343H0.379915V142.478L38.5178 113.112C43.9229 108.688 46.624 104.387 46.624 100.211C46.624 97.1809 45.4851 94.7224 43.2044 92.8392C40.9238 90.9552 37.9673 90.0155 34.3365 90.0155C26.2266 90.0155 19.0887 93.7006 12.9229 101.07L0 90.3835C3.97102 84.7304 9.03854 80.3471 15.2035 77.2365C21.3694 74.1222 28.0849 72.5663 35.3473 72.5663C44.6394 72.5663 52.2845 75.0443 58.2807 79.9993C64.275 84.9562 67.275 91.2836 67.275 98.9831C67.275 104.144 65.7966 108.854 62.8401 113.112C59.8862 117.373 54.3936 122.573 46.3704 128.715L31.1659 140.879ZM146.773 84.1788C153.994 91.9188 157.607 102.382 157.607 115.57C157.607 128.758 153.994 139.222 146.773 146.962C139.551 154.703 129.861 158.571 117.698 158.571C105.536 158.571 95.8431 154.703 88.6213 146.962C81.4004 139.222 77.7909 128.758 77.7909 115.57C77.7909 102.382 81.4004 91.9188 88.6213 84.1788C95.8431 76.4378 105.536 72.5663 117.698 72.5663C129.861 72.5663 139.551 76.4378 146.773 84.1788ZM98.4409 115.57C98.4409 123.351 100.174 129.515 103.637 134.061C107.099 138.606 111.786 140.879 117.698 140.879C123.696 140.879 128.424 138.606 131.887 134.061C135.349 129.515 137.083 123.351 137.083 115.57C137.083 107.789 135.349 101.624 131.887 97.0796C128.424 92.5312 123.696 90.2588 117.698 90.2588C111.702 90.2588 106.994 92.5109 103.573 97.0149C100.153 101.523 98.4409 107.704 98.4409 115.57ZM197.513 140.879H235.014V157.343H166.726V142.478L204.863 113.112C210.268 108.688 212.969 104.387 212.969 100.211C212.969 97.1809 211.829 94.7224 209.548 92.8392C207.268 90.9552 204.311 90.0155 200.68 90.0155C192.572 90.0155 185.433 93.7006 179.269 101.07L166.346 90.3835C170.318 84.7304 175.383 80.3471 181.549 77.2365C187.713 74.1222 194.429 72.5663 201.692 72.5663C210.986 72.5663 218.628 75.0443 224.626 79.9993C230.621 84.9562 233.619 91.2836 233.619 98.9831C233.619 104.144 232.141 108.854 229.185 113.112C226.23 117.373 220.739 122.573 212.715 128.715L197.513 140.879ZM312.547 129.699C312.547 138.298 309.339 145.261 302.92 150.587C296.5 155.91 288.013 158.571 277.455 158.571C263.687 158.571 252.285 154.273 243.247 145.671L253.764 133.016C260.689 138.832 268.207 141.74 276.313 141.74C281.13 141.74 284.992 140.574 287.905 138.238C290.82 135.903 292.278 132.813 292.278 128.961C292.278 125.275 290.924 122.306 288.223 120.054C285.52 117.801 281.889 116.676 277.328 116.676C270.992 116.676 265.547 118.762 260.985 122.942L248.314 116.429L250.343 73.7966H308.241V90.1373H267.827L267.066 105.618C271.962 103.897 276.948 103.038 282.015 103.038C291.305 103.038 298.717 105.473 304.248 110.349C309.782 115.222 312.547 121.671 312.547 129.699Z" fill="#FEFEFE"/>
<path fill-rule="evenodd" clip-rule="evenodd" d="M157.75 47.8635H307.832V4.12225H137.668L157.75 47.8635Z" fill="url(#paint0_linear_382_1682)"/>
<path d="M8.87363 65.9055C8.2991 65.9055 7.76975 65.8124 7.28467 65.627C6.80143 65.4426 6.38089 65.1798 6.02492 64.8405C5.67079 64.5011 5.39228 64.1045 5.19124 63.6499C4.99112 63.1952 4.89062 62.6943 4.89062 62.1493C4.89062 61.6034 4.99112 61.1036 5.19124 60.6489C5.39228 60.1943 5.67172 59.7977 6.03046 59.4575C6.39104 59.119 6.81159 58.8562 7.29575 58.6709C7.78083 58.4855 8.31017 58.3933 8.88471 58.3933C9.4657 58.3933 10.0033 58.4891 10.4949 58.6819C10.9864 58.8737 11.4051 59.1586 11.75 59.5367L11.0491 60.1979C10.7623 59.9037 10.4395 59.6852 10.0808 59.5423C9.7202 59.3984 9.33656 59.3265 8.92803 59.3265C8.50473 59.3265 8.11095 59.3965 7.74852 59.5367C7.38702 59.6769 7.07165 59.8725 6.80605 60.1242C6.54138 60.376 6.33478 60.6749 6.18631 61.0207C6.03968 61.3674 5.96683 61.7436 5.96683 62.1493C5.96683 62.5551 6.03968 62.9314 6.18631 63.2772C6.33478 63.624 6.54138 63.9228 6.80605 64.1746C7.07165 64.4263 7.38702 64.6218 7.74852 64.7619C8.11095 64.9021 8.50473 64.9714 8.92803 64.9714C9.33656 64.9714 9.7202 64.9004 10.0808 64.7565C10.4395 64.6136 10.7623 64.3913 11.0491 64.0906L11.75 64.7519C11.4051 65.129 10.9864 65.4158 10.4949 65.6123C10.0033 65.8078 9.46292 65.9055 8.87363 65.9055Z" fill="#FEFEFE"/>
<path d="M14.2655 61.6454H18.1424V62.5372H14.2655V61.6454ZM14.3623 64.9081H18.7557V65.8211H13.2852V58.4767H18.6054V59.3896H14.3623V64.9081Z" fill="#FEFEFE"/>
<path d="M20.5 65.8211V58.4767H21.3825L26.3689 64.5098H25.9059V58.4767H26.9821V65.8211H26.0996L21.1123 59.788H21.5771V65.8211H20.5Z" fill="#FEFEFE"/>
<path d="M30.7421 65.8211V59.3896H28.1562V58.4767H34.3913V59.3896H31.8082V65.8211H30.7421Z" fill="#FEFEFE"/>
<path d="M40.6005 65.8211L38.6851 63.1559H39.8369L41.7754 65.8211H40.6005ZM36.6387 63.2085L36.1545 62.6948H38.4693C39.1591 62.6948 39.6801 62.5492 40.0361 62.2596C40.3921 61.9691 40.5682 61.5615 40.5682 61.0368C40.5682 60.512 40.3921 60.1071 40.0361 59.8193C39.6801 59.5325 39.1591 59.3896 38.4693 59.3896H36.1545L36.6387 58.8649V63.2085ZM35.5625 65.8211V58.4767H38.5016C39.1619 58.4767 39.7244 58.5781 40.1929 58.781C40.6595 58.9839 41.0183 59.2781 41.2691 59.6617C41.5199 60.0472 41.6463 60.5056 41.6463 61.0368C41.6463 61.5689 41.5199 62.0244 41.2691 62.4062C41.0183 62.7871 40.6595 63.0794 40.1929 63.2823C39.7244 63.4843 39.1619 63.5865 38.5016 63.5865H36.1545L36.6387 63.1044V65.8211H35.5625Z" fill="#FEFEFE"/>
<path d="M43.7064 63.9849L43.9987 63.1458H48.24L48.5526 63.9849H43.7064ZM42.2539 65.8211L45.6679 58.4767H46.7331L50.1581 65.8211H49.0266L45.9797 59.0641H46.4103L43.3633 65.8211H42.2539Z" fill="#FEFEFE"/>
<path d="M51.2773 65.8211V58.4767H52.3545V64.9081H56.4353V65.8211H51.2773Z" fill="#FEFEFE"/>
<path d="M60.8792 63.9849L61.1697 63.1458H65.4136L65.7254 63.9849H60.8792ZM59.4258 65.8211L62.8388 58.4767H63.9059L67.33 65.8211H66.1994L63.1515 59.0641H63.5831L60.5343 65.8211H59.4258Z" fill="#FEFEFE"/>
<path d="M70.6434 65.9055C70.0689 65.9055 69.5202 65.8198 68.9964 65.6483C68.4725 65.4777 68.0594 65.2554 67.7578 64.9824L68.1553 64.1634C68.4439 64.4087 68.8082 64.6117 69.2537 64.7722C69.7 64.9336 70.1629 65.0137 70.6434 65.0137C71.0814 65.0137 71.4374 64.9649 71.7095 64.8671C71.9815 64.7694 72.1835 64.6337 72.3117 64.4631C72.4426 64.2916 72.5063 64.0972 72.5063 63.8804C72.5063 63.6287 72.4214 63.4256 72.2536 63.2716C72.0857 63.1186 71.8653 62.9941 71.596 62.9001C71.3277 62.8051 71.0316 62.723 70.7089 62.6529C70.3852 62.5828 70.0606 62.5008 69.7332 62.4058C69.4076 62.3117 69.1089 62.1909 68.8405 62.0443C68.5712 61.8977 68.3536 61.7004 68.1885 61.4514C68.0225 61.2033 67.9414 60.8832 67.9414 60.4922C67.9414 60.1141 68.0428 59.7655 68.2484 59.4474C68.4513 59.1292 68.7685 58.8737 69.1955 58.6819C69.6216 58.4891 70.1666 58.3933 70.826 58.3933C71.265 58.3933 71.6984 58.4494 72.13 58.561C72.5607 58.6726 72.9342 58.834 73.2486 59.0434L72.8945 59.8825C72.5717 59.6732 72.2305 59.5211 71.8709 59.4261C71.5121 59.332 71.1644 59.2851 70.826 59.2851C70.4027 59.2851 70.055 59.3366 69.7821 59.4427C69.51 59.5469 69.309 59.6872 69.1845 59.8615C69.0581 60.0367 68.9964 60.233 68.9964 60.4497C68.9964 60.7079 69.0802 60.9146 69.249 61.0686C69.4169 61.2226 69.6373 61.3453 69.9056 61.4357C70.1749 61.527 70.4709 61.609 70.7937 61.6828C71.1165 61.7557 71.443 61.8377 71.7685 61.929C72.0959 62.0203 72.3938 62.1392 72.6621 62.2859C72.9323 62.4325 73.1481 62.629 73.3141 62.8734C73.4801 63.1187 73.5613 63.433 73.5613 63.8176C73.5613 64.1883 73.458 64.5324 73.2486 64.8515C73.0402 65.1696 72.7202 65.4251 72.2859 65.617C71.8515 65.8097 71.3046 65.9055 70.6434 65.9055Z" fill="#FEFEFE"/>
<path d="M75.1367 58.4767H76.2148V65.8211H75.1367V58.4767Z" fill="#FEFEFE"/>
<path d="M78.7903 63.9849L79.0808 63.1458H83.3238L83.6365 63.9849H78.7903ZM77.3359 65.8211L80.7499 58.4767H81.8151L85.2411 65.8211H84.1105L81.0617 59.0641H81.4933L78.4454 65.8211H77.3359Z" fill="#FEFEFE"/>
<path d="M86.3516 65.8211V58.4767H87.235L92.2214 64.5098H91.7585V58.4767H92.8347V65.8211H91.9512L86.9648 59.788H87.4287V65.8211H86.3516Z" fill="#FEFEFE"/>
<path d="M98.3079 63.9849L98.5993 63.1458H102.841L103.154 63.9849H98.3079ZM96.8555 65.8211L100.269 58.4767H101.335L104.759 65.8211H103.628L100.581 59.0641H101.011L97.9649 65.8211H96.8555Z" fill="#FEFEFE"/>
<path d="M106.863 61.6454H110.739V62.5372H106.863V61.6454ZM106.96 64.9081H111.353V65.8211H105.883V58.4767H111.202V59.3896H106.96V64.9081Z" fill="#FEFEFE"/>
<path d="M115.296 65.9055C114.721 65.9055 114.172 65.8198 113.649 65.6483C113.124 65.4777 112.712 65.2554 112.41 64.9824L112.808 64.1634C113.096 64.4087 113.461 64.6117 113.906 64.7722C114.351 64.9336 114.814 65.0137 115.296 65.0137C115.734 65.0137 116.09 64.9649 116.363 64.8671C116.634 64.7694 116.837 64.6337 116.965 64.4631C117.095 64.2916 117.159 64.0972 117.159 63.8804C117.159 63.6287 117.074 63.4256 116.906 63.2716C116.737 63.1186 116.519 62.9941 116.248 62.9001C115.98 62.8051 115.684 62.723 115.36 62.6529C115.037 62.5828 114.713 62.5008 114.386 62.4058C114.06 62.3117 113.761 62.1909 113.492 62.0443C113.224 61.8977 113.006 61.7004 112.84 61.4514C112.676 61.2033 112.594 60.8832 112.594 60.4922C112.594 60.1141 112.695 59.7655 112.901 59.4474C113.104 59.1292 113.42 58.8737 113.848 58.6819C114.274 58.4891 114.819 58.3933 115.478 58.3933C115.917 58.3933 116.352 58.4494 116.782 58.561C117.212 58.6726 117.586 58.834 117.902 59.0434L117.547 59.8825C117.223 59.6732 116.883 59.5211 116.524 59.4261C116.164 59.332 115.817 59.2851 115.478 59.2851C115.055 59.2851 114.707 59.3366 114.434 59.4427C114.161 59.5469 113.961 59.6872 113.837 59.8615C113.71 60.0367 113.649 60.233 113.649 60.4497C113.649 60.7079 113.733 60.9146 113.901 61.0686C114.07 61.2226 114.29 61.3453 114.558 61.4357C114.827 61.527 115.124 61.609 115.446 61.6828C115.769 61.7557 116.095 61.8377 116.421 61.929C116.748 62.0203 117.045 62.1392 117.314 62.2859C117.585 62.4325 117.801 62.629 117.966 62.8734C118.132 63.1187 118.215 63.433 118.215 63.8176C118.215 64.1883 118.11 64.5324 117.902 64.8515C117.693 65.1696 117.373 65.4251 116.938 65.617C116.504 65.8097 115.957 65.9055 115.296 65.9055Z" fill="#FEFEFE"/>
<path d="M121.174 65.8211V59.3896H118.59V58.4767H124.824V59.3896H122.24V65.8211H121.174Z" fill="#FEFEFE"/>
<path d="M131.398 58.4767H132.475V65.8211H131.398V58.4767ZM131.494 62.5472H126.961V61.6353H131.494V62.5472ZM127.069 65.8211H125.992V58.4767H127.069V65.8211Z" fill="#FEFEFE"/>
<path d="M135.722 61.6454H139.598V62.5372H135.722V61.6454ZM135.82 64.9081H140.213V65.8211H134.742V58.4767H140.061V59.3896H135.82V64.9081Z" fill="#FEFEFE"/>
<path d="M143.447 65.8211V59.3896H140.863V58.4767H147.098V59.3896H144.514V65.8211H143.447Z" fill="#FEFEFE"/>
<path d="M148.277 58.4767H149.353V65.8211H148.277V58.4767Z" fill="#FEFEFE"/>
<path d="M154.988 65.9055C154.413 65.9055 153.885 65.8124 153.4 65.627C152.916 65.4426 152.494 65.1798 152.14 64.8405C151.784 64.5011 151.506 64.1045 151.305 63.6499C151.104 63.1952 151.004 62.6943 151.004 62.1493C151.004 61.6034 151.104 61.1036 151.305 60.6489C151.506 60.1943 151.785 59.7977 152.145 59.4575C152.504 59.119 152.926 58.8562 153.411 58.6709C153.894 58.4855 154.423 58.3933 154.998 58.3933C155.579 58.3933 156.117 58.4891 156.609 58.6819C157.1 58.8737 157.517 59.1586 157.863 59.5367L157.162 60.1979C156.876 59.9037 156.553 59.6852 156.194 59.5423C155.834 59.3984 155.45 59.3265 155.041 59.3265C154.618 59.3265 154.225 59.3965 153.863 59.5367C153.5 59.6769 153.185 59.8725 152.92 60.1242C152.655 60.376 152.448 60.6749 152.301 61.0207C152.154 61.3674 152.08 61.7436 152.08 62.1493C152.08 62.5551 152.154 62.9314 152.301 63.2772C152.448 63.624 152.655 63.9228 152.92 64.1746C153.185 64.4263 153.5 64.6218 153.863 64.7619C154.225 64.9021 154.618 64.9714 155.041 64.9714C155.45 64.9714 155.834 64.9004 156.194 64.7565C156.553 64.6136 156.876 64.3913 157.162 64.0906L157.863 64.7519C157.517 65.129 157.1 65.4158 156.609 65.6123C156.117 65.8078 155.576 65.9055 154.988 65.9055Z" fill="#FEFEFE"/>
<path d="M161.581 65.9055C161.006 65.9055 160.457 65.8198 159.934 65.6483C159.41 65.4777 158.997 65.2554 158.695 64.9824L159.094 64.1634C159.381 64.4087 159.746 64.6117 160.192 64.7722C160.638 64.9336 161.1 65.0137 161.581 65.0137C162.018 65.0137 162.373 64.9649 162.647 64.8671C162.92 64.7694 163.12 64.6337 163.249 64.4631C163.378 64.2916 163.444 64.0972 163.444 63.8804C163.444 63.6287 163.36 63.4256 163.191 63.2716C163.021 63.1186 162.803 62.9941 162.535 62.9001C162.265 62.8051 161.969 62.723 161.646 62.6529C161.323 62.5828 160.997 62.5008 160.672 62.4058C160.344 62.3117 160.046 62.1909 159.776 62.0443C159.508 61.8977 159.29 61.7004 159.126 61.4514C158.96 61.2033 158.878 60.8832 158.878 60.4922C158.878 60.1141 158.981 59.7655 159.184 59.4474C159.389 59.1292 159.706 58.8737 160.132 58.6819C160.56 58.4891 161.103 58.3933 161.764 58.3933C162.202 58.3933 162.636 58.4494 163.067 58.561C163.498 58.6726 163.872 58.834 164.186 59.0434L163.832 59.8825C163.507 59.6732 163.167 59.5211 162.808 59.4261C162.45 59.332 162.101 59.2851 161.764 59.2851C161.34 59.2851 160.992 59.3366 160.719 59.4427C160.447 59.5469 160.247 59.6872 160.121 59.8615C159.997 60.0367 159.934 60.233 159.934 60.4497C159.934 60.7079 160.018 60.9146 160.187 61.0686C160.354 61.2226 160.574 61.3453 160.844 61.4357C161.112 61.527 161.409 61.609 161.731 61.6828C162.055 61.7557 162.379 61.8377 162.707 61.929C163.032 62.0203 163.331 62.1392 163.6 62.2859C163.869 62.4325 164.086 62.629 164.252 62.8734C164.416 63.1187 164.499 63.433 164.499 63.8176C164.499 64.1883 164.395 64.5324 164.186 64.8515C163.98 65.1696 163.657 65.4251 163.223 65.617C162.789 65.8097 162.24 65.9055 161.581 65.9055Z" fill="#FEFEFE"/>
<path d="M168.969 65.8211V58.4767H169.851L173.232 64.0275H172.758L176.097 58.4767H176.98L176.991 65.8211H175.957L175.946 60.0611H176.193L173.221 64.9293H172.726L169.733 60.0611H170.002V65.8211H168.969Z" fill="#FEFEFE"/>
<path d="M180.234 61.6454H184.111V62.5372H180.234V61.6454ZM180.331 64.9081H184.724V65.8211H179.254V58.4767H184.574V59.3896H180.331V64.9081Z" fill="#FEFEFE"/>
<path d="M187.545 64.9081H189.58C190.205 64.9081 190.746 64.7928 191.201 64.5622C191.657 64.3308 192.011 64.008 192.262 63.5912C192.514 63.1753 192.638 62.6948 192.638 62.1488C192.638 61.5964 192.514 61.1133 192.262 60.701C192.011 60.2879 191.657 59.966 191.201 59.7354C190.746 59.5049 190.205 59.3896 189.58 59.3896H187.545V64.9081ZM186.469 65.8211V58.4767H189.646C190.45 58.4767 191.158 58.6308 191.772 58.9378C192.386 59.2459 192.863 59.6765 193.205 60.2289C193.545 60.7813 193.716 61.4212 193.716 62.1488C193.716 62.8764 193.545 63.5165 193.205 64.0689C192.863 64.6213 192.386 65.0511 191.772 65.3591C191.158 65.6671 190.45 65.8211 189.646 65.8211H186.469Z" fill="#FEFEFE"/>
<path d="M195.363 58.4767H196.44V65.8211H195.363V58.4767Z" fill="#FEFEFE"/>
<path d="M202.076 65.9055C201.501 65.9055 200.972 65.8124 200.487 65.627C200.002 65.4426 199.583 65.1798 199.226 64.8405C198.871 64.5011 198.592 64.1045 198.391 63.6499C198.19 63.1952 198.09 62.6943 198.09 62.1493C198.09 61.6034 198.19 61.1036 198.391 60.6489C198.592 60.1943 198.873 59.7977 199.233 59.4575C199.59 59.119 200.013 58.8562 200.498 58.6709C200.982 58.4855 201.511 58.3933 202.086 58.3933C202.668 58.3933 203.204 58.4891 203.695 58.6819C204.187 58.8737 204.606 59.1586 204.95 59.5367L204.251 60.1979C203.963 59.9037 203.64 59.6852 203.281 59.5423C202.922 59.3984 202.539 59.3265 202.13 59.3265C201.705 59.3265 201.312 59.3965 200.95 59.5367C200.587 59.6769 200.274 59.8725 200.007 60.1242C199.742 60.376 199.535 60.6749 199.388 61.0207C199.242 61.3674 199.167 61.7436 199.167 62.1493C199.167 62.5551 199.242 62.9314 199.388 63.2772C199.535 63.624 199.742 63.9228 200.007 64.1746C200.274 64.4263 200.587 64.6218 200.95 64.7619C201.312 64.9021 201.705 64.9714 202.13 64.9714C202.539 64.9714 202.922 64.9004 203.281 64.7565C203.64 64.6136 203.963 64.3913 204.251 64.0906L204.95 64.7519C204.606 65.129 204.187 65.4158 203.695 65.6123C203.204 65.8078 202.663 65.9055 202.076 65.9055Z" fill="#FEFEFE"/>
<path d="M206.484 58.4767H207.562V65.8211H206.484V58.4767Z" fill="#FEFEFE"/>
<path d="M209.832 65.8211V58.4767H210.714L215.7 64.5098H215.237V58.4767H216.314V65.8211H215.432L210.445 59.788H210.908V65.8211H209.832Z" fill="#FEFEFE"/>
<path d="M219.549 61.6454H223.427V62.5372H219.549V61.6454ZM219.647 64.9081H224.041V65.8211H218.57V58.4767H223.89V59.3896H219.647V64.9081Z" fill="#FEFEFE"/>
<path d="M232.057 65.9055C231.483 65.9055 230.953 65.8124 230.469 65.627C229.986 65.4426 229.564 65.1798 229.209 64.8405C228.854 64.5011 228.576 64.1045 228.376 63.6499C228.174 63.1952 228.074 62.6943 228.074 62.1493C228.074 61.6034 228.174 61.1036 228.376 60.6489C228.576 60.1943 228.855 59.7977 229.214 59.4575C229.575 59.119 229.995 58.8562 230.479 58.6709C230.964 58.4855 231.494 58.3933 232.068 58.3933C232.649 58.3933 233.187 58.4891 233.678 58.6819C234.171 58.8737 234.589 59.1586 234.934 59.5367L234.233 60.1979C233.946 59.9037 233.623 59.6852 233.263 59.5423C232.905 59.3984 232.52 59.3265 232.113 59.3265C231.688 59.3265 231.294 59.3965 230.932 59.5367C230.57 59.6769 230.255 59.8725 229.99 60.1242C229.725 60.376 229.518 60.6749 229.37 61.0207C229.224 61.3674 229.15 61.7436 229.15 62.1493C229.15 62.5551 229.224 62.9314 229.37 63.2772C229.518 63.624 229.725 63.9228 229.99 64.1746C230.255 64.4263 230.57 64.6218 230.932 64.7619C231.294 64.9021 231.688 64.9714 232.113 64.9714C232.52 64.9714 232.905 64.9004 233.263 64.7565C233.623 64.6136 233.946 64.3913 234.233 64.0906L234.934 64.7519C234.589 65.129 234.171 65.4158 233.678 65.6123C233.187 65.8078 232.646 65.9055 232.057 65.9055Z" fill="#FEFEFE"/>
<path d="M239.704 64.9714C240.121 64.9714 240.506 64.9021 240.86 64.7619C241.216 64.6218 241.524 64.4244 241.788 64.169C242.05 63.9135 242.254 63.6147 242.401 63.2716C242.548 62.9295 242.622 62.5551 242.622 62.1493C242.622 61.7436 242.548 61.3692 242.401 61.0261C242.254 60.684 242.05 60.3853 241.788 60.1298C241.524 59.8744 241.216 59.6769 240.86 59.5367C240.506 59.3965 240.121 59.3274 239.704 59.3274C239.28 59.3274 238.89 59.3965 238.534 59.5367C238.18 59.6769 237.868 59.8744 237.603 60.1298C237.338 60.3853 237.133 60.684 236.984 61.0261C236.837 61.3692 236.764 61.7436 236.764 62.1493C236.764 62.5551 236.837 62.9295 236.984 63.2716C237.133 63.6147 237.338 63.9135 237.603 64.169C237.868 64.4244 238.18 64.6218 238.534 64.7619C238.89 64.9021 239.28 64.9714 239.704 64.9714ZM239.704 65.9055C239.129 65.9055 238.595 65.8114 238.104 65.6224C237.612 65.4333 237.188 65.1696 236.827 64.8302C236.469 64.4908 236.19 64.0933 235.989 63.6396C235.788 63.185 235.688 62.6879 235.688 62.1493C235.688 61.6108 235.788 61.1137 235.989 60.659C236.19 60.2053 236.469 59.808 236.827 59.4686C237.188 59.1292 237.611 58.8653 238.098 58.6763C238.588 58.4872 239.122 58.3933 239.704 58.3933C240.278 58.3933 240.808 58.4864 241.293 58.6718C241.777 58.8562 242.2 59.119 242.563 59.4575C242.924 59.7977 243.205 60.1943 243.402 60.6489C243.6 61.1036 243.699 61.6034 243.699 62.1493C243.699 62.6943 243.6 63.1952 243.402 63.6499C243.205 64.1045 242.924 64.5011 242.563 64.8405C242.2 65.1798 241.777 65.4426 241.293 65.627C240.808 65.8124 240.278 65.9055 239.704 65.9055Z" fill="#FEFEFE"/>
<path d="M245.355 65.8211V58.4767H246.238L251.223 64.5098H250.76V58.4767H251.838V65.8211H250.955L245.969 59.788H246.433V65.8211H245.355Z" fill="#FEFEFE"/>
<path d="M259.322 64.8358V62.107H260.355V64.9714L259.322 64.8358ZM257.502 65.9055C256.92 65.9055 256.385 65.8124 255.897 65.627C255.408 65.4426 254.985 65.1798 254.625 64.8405C254.267 64.5011 253.988 64.1045 253.787 63.6499C253.585 63.1952 253.484 62.6943 253.484 62.1493C253.484 61.6034 253.585 61.1036 253.787 60.6489C253.988 60.1943 254.268 59.7977 254.632 59.4575C254.994 59.119 255.418 58.8562 255.908 58.6718C256.395 58.4864 256.934 58.3933 257.524 58.3933C258.118 58.3933 258.663 58.4872 259.16 58.6763C259.656 58.8653 260.074 59.1485 260.42 59.5266L259.752 60.1768C259.444 59.8827 259.108 59.6678 258.746 59.5313C258.383 59.3948 257.989 59.3274 257.565 59.3274C257.135 59.3274 256.735 59.3965 256.365 59.5367C255.996 59.6769 255.676 59.8725 255.406 60.1242C255.138 60.376 254.93 60.6749 254.782 61.0207C254.635 61.3674 254.562 61.7436 254.562 62.1493C254.562 62.5477 254.635 62.9204 254.782 63.2671C254.93 63.613 255.138 63.9135 255.406 64.169C255.676 64.4244 255.993 64.6218 256.36 64.7619C256.727 64.9021 257.124 64.9714 257.555 64.9714C257.957 64.9714 258.344 64.9105 258.713 64.7879C259.082 64.6661 259.425 64.4614 259.741 64.1746L260.355 64.9714C259.981 65.2794 259.545 65.5126 259.047 65.6694C258.547 65.8271 258.033 65.9055 257.502 65.9055Z" fill="#FEFEFE"/>
<path d="M267.446 65.8211L265.53 63.1559H266.682L268.619 65.8211H267.446ZM263.482 63.2085L262.998 62.6948H265.314C266.004 62.6948 266.526 62.5492 266.88 62.2596C267.236 61.9691 267.415 61.5615 267.415 61.0368C267.415 60.512 267.236 60.1071 266.88 59.8193C266.526 59.5325 266.004 59.3896 265.314 59.3896H262.998L263.482 58.8649V63.2085ZM262.406 65.8211V58.4767H265.346C266.007 58.4767 266.571 58.5781 267.037 58.781C267.503 58.9839 267.862 59.2781 268.114 59.6617C268.365 60.0472 268.491 60.5056 268.491 61.0368C268.491 61.5689 268.365 62.0244 268.114 62.4062C267.862 62.7871 267.503 63.0794 267.037 63.2823C266.571 63.4843 266.007 63.5865 265.346 63.5865H262.998L263.482 63.1044V65.8211H262.406Z" fill="#FEFEFE"/>
<path d="M271.219 61.6454H275.095V62.5372H271.219V61.6454ZM271.315 64.9081H275.709V65.8211H270.238V58.4767H275.558V59.3896H271.315V64.9081Z" fill="#FEFEFE"/>
<path d="M279.654 65.9055C279.08 65.9055 278.532 65.8198 278.008 65.6483C277.484 65.4777 277.071 65.2554 276.77 64.9824L277.167 64.1634C277.456 64.4087 277.82 64.6117 278.265 64.7722C278.711 64.9336 279.174 65.0137 279.654 65.0137C280.093 65.0137 280.447 64.9649 280.722 64.8671C280.993 64.7694 281.194 64.6337 281.324 64.4631C281.453 64.2916 281.518 64.0972 281.518 63.8804C281.518 63.6287 281.433 63.4256 281.265 63.2716C281.097 63.1186 280.877 62.9941 280.608 62.9001C280.339 62.8051 280.043 62.723 279.721 62.6529C279.397 62.5828 279.072 62.5008 278.745 62.4058C278.419 62.3117 278.12 62.1909 277.851 62.0443C277.583 61.8977 277.365 61.7004 277.199 61.4514C277.034 61.2033 276.953 60.8832 276.953 60.4922C276.953 60.1141 277.055 59.7655 277.259 59.4474C277.463 59.1292 277.779 58.8737 278.207 58.6819C278.633 58.4891 279.178 58.3933 279.838 58.3933C280.277 58.3933 280.711 58.4494 281.142 58.561C281.572 58.6726 281.946 58.834 282.261 59.0434L281.906 59.8825C281.583 59.6732 281.242 59.5211 280.883 59.4261C280.524 59.332 280.176 59.2851 279.838 59.2851C279.414 59.2851 279.067 59.3366 278.794 59.4427C278.521 59.5469 278.321 59.6872 278.196 59.8615C278.07 60.0367 278.008 60.233 278.008 60.4497C278.008 60.7079 278.092 60.9146 278.26 61.0686C278.429 61.2226 278.649 61.3453 278.917 61.4357C279.187 61.527 279.483 61.609 279.805 61.6828C280.128 61.7557 280.455 61.8377 280.78 61.929C281.108 62.0203 281.405 62.1392 281.674 62.2859C281.944 62.4325 282.16 62.629 282.325 62.8734C282.491 63.1187 282.574 63.433 282.574 63.8176C282.574 64.1883 282.47 64.5324 282.261 64.8515C282.053 65.1696 281.732 65.4251 281.298 65.617C280.863 65.8097 280.315 65.9055 279.654 65.9055Z" fill="#FEFEFE"/>
<path d="M286.335 65.9055C285.76 65.9055 285.212 65.8198 284.688 65.6483C284.164 65.4777 283.751 65.2554 283.449 64.9824L283.847 64.1634C284.135 64.4087 284.501 64.6117 284.945 64.7722C285.391 64.9336 285.853 65.0137 286.335 65.0137C286.774 65.0137 287.129 64.9649 287.402 64.8671C287.673 64.7694 287.876 64.6337 288.003 64.4631C288.134 64.2916 288.198 64.0972 288.198 63.8804C288.198 63.6287 288.113 63.4256 287.945 63.2716C287.776 63.1186 287.557 62.9941 287.287 62.9001C287.019 62.8051 286.723 62.723 286.4 62.6529C286.077 62.5828 285.752 62.5008 285.425 62.4058C285.099 62.3117 284.8 62.1909 284.532 62.0443C284.263 61.8977 284.045 61.7004 283.879 61.4514C283.714 61.2033 283.633 60.8832 283.633 60.4922C283.633 60.1141 283.734 59.7655 283.939 59.4474C284.144 59.1292 284.459 58.8737 284.887 58.6819C285.313 58.4891 285.858 58.3933 286.517 58.3933C286.956 58.3933 287.391 58.4494 287.821 58.561C288.252 58.6726 288.626 58.834 288.94 59.0434L288.586 59.8825C288.263 59.6732 287.922 59.5211 287.562 59.4261C287.204 59.332 286.856 59.2851 286.517 59.2851C286.094 59.2851 285.746 59.3366 285.473 59.4427C285.201 59.5469 285 59.6872 284.876 59.8615C284.75 60.0367 284.688 60.233 284.688 60.4497C284.688 60.7079 284.772 60.9146 284.941 61.0686C285.108 61.2226 285.329 61.3453 285.597 61.4357C285.866 61.527 286.162 61.609 286.485 61.6828C286.809 61.7557 287.134 61.8377 287.46 61.929C287.787 62.0203 288.084 62.1392 288.354 62.2859C288.624 62.4325 288.841 62.629 289.006 62.8734C289.172 63.1187 289.254 63.433 289.254 63.8176C289.254 64.1883 289.149 64.5324 288.94 64.8515C288.733 65.1696 288.412 65.4251 287.977 65.617C287.543 65.8097 286.996 65.9055 286.335 65.9055Z" fill="#FEFEFE"/>
<path d="M30.0181 52.5953C25.9761 52.5953 22.254 51.9471 18.8455 50.6486C15.4361 49.3511 12.4832 47.5149 9.9822 45.1393C7.48302 42.7646 5.52516 39.986 4.11326 36.8016C2.69768 33.6191 1.99219 30.1174 1.99219 26.2977C1.99219 22.4779 2.69768 18.9771 4.11326 15.7937C5.52516 12.6112 7.49594 9.83179 10.02 7.45619C12.5459 5.0815 15.5127 3.24537 18.9202 1.9469C22.3287 0.650278 26.0526 0 30.0928 0C34.1837 0 37.9564 0.674147 41.4175 2.02057C44.8757 3.36791 47.8167 5.36266 50.2412 8.00663L45.3165 12.6351C43.2978 10.5786 41.0246 9.04784 38.5005 8.04355C35.9755 7.04111 33.2744 6.53848 30.3962 6.53848C27.4156 6.53848 24.6518 7.02817 22.1028 8.00663C19.551 8.98693 17.3414 10.3575 15.474 12.1207C13.6056 13.884 12.154 15.9773 11.1184 18.4009C10.0846 20.8254 9.5663 23.4582 9.5663 26.2977C9.5663 29.1381 10.0846 31.7701 11.1184 34.1946C12.154 36.6182 13.6056 38.7115 15.474 40.4748C17.3414 42.238 19.551 43.6093 22.1028 44.5878C24.6518 45.5681 27.4156 46.0579 30.3962 46.0579C33.2744 46.0579 35.9755 45.5562 38.5005 44.552C41.0246 43.5486 43.2978 41.9937 45.3165 39.8874L50.2412 44.515C47.8167 47.159 44.8757 49.1685 41.4175 50.5389C37.9564 51.9102 34.1569 52.5953 30.0181 52.5953Z" fill="#FEFEFE"/>
<path d="M61.9812 39.1501L64.0257 33.2737H93.8693L96.065 39.1501H61.9812ZM51.7539 52.0057L75.7664 0.586182H83.2639L107.351 52.0057H99.3979L77.963 4.69919H80.9925L59.5558 52.0057H51.7539Z" fill="#FEFEFE"/>
<path d="M118.406 39.1501L120.451 33.2737H150.293L152.489 39.1501H118.406ZM108.18 52.0057L132.19 0.586182H139.69L163.776 52.0057H155.823L134.387 4.69919H137.416L115.982 52.0057H108.18Z" fill="#FEFEFE"/>
<path d="M171.648 52.0048V0.586182H177.86L201.643 39.4442H198.311L221.792 0.586182H228.002L228.078 52.0048H220.806L220.731 11.6775H222.473L201.569 45.7613H198.084L177.026 11.6775H178.921V52.0048H171.648Z" fill="#FEFEFE"/>
<path d="M267.698 52.5953C263.656 52.5953 259.934 51.9471 256.524 50.6486C253.116 49.3511 250.163 47.5149 247.664 45.1393C245.163 42.7646 243.206 39.986 241.793 36.8016C240.378 33.6191 239.672 30.1174 239.672 26.2977C239.672 22.4779 240.378 18.9771 241.793 15.7937C243.206 12.6112 245.175 9.83179 247.7 7.45619C250.226 5.0815 253.192 3.24537 256.601 1.9469C260.008 0.650278 263.733 0 267.772 0C271.863 0 275.636 0.674147 279.097 2.02057C282.555 3.36791 285.496 5.36266 287.922 8.00663L282.997 12.6351C280.978 10.5786 278.704 9.04784 276.18 8.04355C273.655 7.04111 270.955 6.53848 268.077 6.53848C265.095 6.53848 262.331 7.02817 259.782 8.00663C257.231 8.98693 255.022 10.3575 253.154 12.1207C251.285 13.884 249.834 15.9773 248.798 18.4009C247.764 20.8254 247.247 23.4582 247.247 26.2977C247.247 29.1381 247.764 31.7701 248.798 34.1946C249.834 36.6182 251.285 38.7115 253.154 40.4748C255.022 42.238 257.231 43.6093 259.782 44.5878C262.331 45.5681 265.095 46.0579 268.077 46.0579C270.955 46.0579 273.655 45.5562 276.18 44.552C278.704 43.5486 280.978 41.9937 282.997 39.8874L287.922 44.515C285.496 47.159 282.555 49.1685 279.097 50.5389C275.636 51.9102 271.837 52.5953 267.698 52.5953Z" fill="#FEFEFE"/>
<defs>
<linearGradient id="paint0_linear_382_1682" x1="149.729" y1="50.1081" x2="310.834" y2="-3.08377" gradientUnits="userSpaceOnUse">
<stop stop-color="#C27C1C"/>
<stop offset="0.0117647" stop-color="#C27C1C"/>
<stop offset="0.0196078" stop-color="#C17C1C"/>
<stop offset="0.0313725" stop-color="#C17B1D"/>
<stop offset="0.0392157" stop-color="#C07B1D"/>
<stop offset="0.0509804" stop-color="#BF7B1E"/>
<stop offset="0.0588235" stop-color="#BF7A1E"/>
<stop offset="0.0705882" stop-color="#BE7A1E"/>
<stop offset="0.0784314" stop-color="#BD7A1F"/>
<stop offset="0.0901961" stop-color="#BD791F"/>
<stop offset="0.101961" stop-color="#BC7920"/>
<stop offset="0.109804" stop-color="#BB7920"/>
<stop offset="0.121569" stop-color="#BA7820"/>
<stop offset="0.129412" stop-color="#BA7821"/>
<stop offset="0.141176" stop-color="#B97821"/>
<stop offset="0.14902" stop-color="#B97822"/>
<stop offset="0.160784" stop-color="#B87722"/>
<stop offset="0.168627" stop-color="#B77722"/>
<stop offset="0.180392" stop-color="#B77723"/>
<stop offset="0.188235" stop-color="#B67623"/>
<stop offset="0.2" stop-color="#B67623"/>
<stop offset="0.211765" stop-color="#B57624"/>
<stop offset="0.219608" stop-color="#B47624"/>
<stop offset="0.231373" stop-color="#B47524"/>
<stop offset="0.239216" stop-color="#B37525"/>
<stop offset="0.25098" stop-color="#B37525"/>
<stop offset="0.258824" stop-color="#B27525"/>
<stop offset="0.270588" stop-color="#B27426"/>
<stop offset="0.278431" stop-color="#B17426"/>
<stop offset="0.290196" stop-color="#B17426"/>
<stop offset="0.301961" stop-color="#B17426"/>
<stop offset="0.309804" stop-color="#B17426"/>
<stop offset="0.321569" stop-color="#B17426"/>
<stop offset="0.329412" stop-color="#B17426"/>
<stop offset="0.341176" stop-color="#B17426"/>
<stop offset="0.34902" stop-color="#B17426"/>
<stop offset="0.360784" stop-color="#B17426"/>
<stop offset="0.368627" stop-color="#B17426"/>
<stop offset="0.380392" stop-color="#B17426"/>
<stop offset="0.388235" stop-color="#B17426"/>
<stop offset="0.4" stop-color="#B17426"/>
<stop offset="0.411765" stop-color="#B17426"/>
<stop offset="0.419608" stop-color="#B17426"/>
<stop offset="0.431373" stop-color="#B17426"/>
<stop offset="0.439216" stop-color="#B17426"/>
<stop offset="0.45098" stop-color="#B17426"/>
<stop offset="0.458824" stop-color="#B17426"/>
<stop offset="0.470588" stop-color="#B17426"/>
<stop offset="0.478431" stop-color="#B17426"/>
<stop offset="0.490196" stop-color="#B17426"/>
<stop offset="0.501961" stop-color="#B17426"/>
<stop offset="0.509804" stop-color="#B17426"/>
<stop offset="0.521569" stop-color="#B17426"/>
<stop offset="0.529412" stop-color="#B17426"/>
<stop offset="0.541176" stop-color="#B17426"/>
<stop offset="0.54902" stop-color="#B17426"/>
<stop offset="0.560784" stop-color="#B17426"/>
<stop offset="0.568627" stop-color="#B17426"/>
<stop offset="0.580392" stop-color="#B17426"/>
<stop offset="0.588235" stop-color="#B17426"/>
<stop offset="0.6" stop-color="#B17426"/>
<stop offset="0.611765" stop-color="#B17426"/>
<stop offset="0.619608" stop-color="#B17426"/>
<stop offset="0.631373" stop-color="#B17426"/>
<stop offset="0.639216" stop-color="#B17426"/>
<stop offset="0.65098" stop-color="#B17426"/>
<stop offset="0.658824" stop-color="#B17426"/>
<stop offset="0.670588" stop-color="#B17426"/>
<stop offset="0.678431" stop-color="#B17426"/>
<stop offset="0.690196" stop-color="#B17426"/>
<stop offset="0.701961" stop-color="#B17426"/>
<stop offset="0.709804" stop-color="#B17426"/>
<stop offset="0.721569" stop-color="#B17426"/>
<stop offset="0.729412" stop-color="#B17426"/>
<stop offset="0.741176" stop-color="#B17426"/>
<stop offset="0.74902" stop-color="#B17426"/>
<stop offset="0.760784" stop-color="#B17426"/>
<stop offset="0.768627" stop-color="#B17426"/>
<stop offset="0.780392" stop-color="#B17426"/>
<stop offset="0.788235" stop-color="#B17426"/>
<stop offset="0.8" stop-color="#B17426"/>
<stop offset="0.811765" stop-color="#B17426"/>
<stop offset="0.819608" stop-color="#B17426"/>
<stop offset="0.831373" stop-color="#B17426"/>
<stop offset="0.839216" stop-color="#B17426"/>
<stop offset="0.85098" stop-color="#B17426"/>
<stop offset="0.858824" stop-color="#B17426"/>
<stop offset="0.870588" stop-color="#B17426"/>
<stop offset="0.878431" stop-color="#B17426"/>
<stop offset="0.890196" stop-color="#B17426"/>
<stop offset="0.901961" stop-color="#B17426"/>
<stop offset="0.909804" stop-color="#B17426"/>
<stop offset="0.921569" stop-color="#B17426"/>
<stop offset="0.929412" stop-color="#B17426"/>
<stop offset="0.941176" stop-color="#B17426"/>
<stop offset="0.94902" stop-color="#B17426"/>
<stop offset="0.960784" stop-color="#B17426"/>
<stop offset="0.968627" stop-color="#B17426"/>
<stop offset="0.980392" stop-color="#B17426"/>
<stop offset="0.988235" stop-color="#B17426"/>
<stop offset="1" stop-color="#B17426"/>
</linearGradient>
</defs>
</svg>
