<svg width="177" height="90" viewBox="0 0 177 90" fill="none" xmlns="http://www.w3.org/2000/svg">
<path d="M17.6497 79.7818H38.8885V89.1058H0.215152V80.6874L21.8132 64.0571C24.8742 61.5518 26.4039 59.116 26.4039 56.7512C26.4039 55.035 25.7589 53.6427 24.4673 52.5762C23.1758 51.5093 21.5014 50.9771 19.4453 50.9771C14.8525 50.9771 10.8102 53.064 7.31842 57.2374L0 51.1855C2.24885 47.9841 5.11866 45.5017 8.60996 43.7402C12.1018 41.9765 15.9049 41.0954 20.0177 41.0954C25.28 41.0954 29.6095 42.4987 33.0052 45.3048C36.3999 48.1119 38.0988 51.6953 38.0988 56.0556C38.0988 58.9782 37.2616 61.6458 35.5873 64.0571C33.9145 66.4699 30.8039 69.4149 26.2602 72.8932L17.6497 79.7818ZM83.1197 47.6717C87.209 52.055 89.2552 57.9806 89.2552 65.4489C89.2552 72.9178 87.209 78.8433 83.1197 83.2267C79.0299 87.6105 73.5425 89.8013 66.6544 89.8013C59.7669 89.8013 54.2774 87.6105 50.1876 83.2267C46.0983 78.8433 44.0541 72.9178 44.0541 65.4489C44.0541 57.9806 46.0983 52.055 50.1876 47.6717C54.2774 43.2879 59.7669 41.0954 66.6544 41.0954C73.5425 41.0954 79.0299 43.2879 83.1197 47.6717ZM55.7486 65.4489C55.7486 69.8558 56.7299 73.3465 58.691 75.9207C60.6516 78.4944 63.3062 79.7818 66.6544 79.7818C70.0507 79.7818 72.7283 78.4944 74.6894 75.9207C76.6504 73.3465 77.6323 69.8558 77.6323 65.4489C77.6323 61.0426 76.6504 57.5513 74.6894 54.9776C72.7283 52.4018 70.0507 51.1149 66.6544 51.1149C63.2587 51.1149 60.5926 52.3903 58.655 54.941C56.7184 57.4938 55.7486 60.9946 55.7486 65.4489ZM111.854 79.7818H133.092V89.1058H94.4193V80.6874L116.017 64.0571C119.078 61.5518 120.607 59.116 120.607 56.7512C120.607 55.035 119.962 53.6427 118.67 52.5762C117.379 51.5093 115.705 50.9771 113.648 50.9771C109.056 50.9771 105.013 53.064 101.523 57.2374L94.2041 51.1855C96.4535 47.9841 99.3223 45.5017 102.814 43.7402C106.305 41.9765 110.108 41.0954 114.221 41.0954C119.485 41.0954 123.813 42.4987 127.209 45.3048C130.604 48.1119 132.302 51.6953 132.302 56.0556C132.302 58.9782 131.465 61.6458 129.791 64.0571C128.118 66.4699 125.008 69.4149 120.464 72.8932L111.854 79.7818ZM177 73.4504C177 78.3205 175.184 82.2635 171.548 85.2796C167.913 88.2941 163.106 89.8013 157.127 89.8013C149.33 89.8013 142.873 87.3671 137.754 82.4955L143.71 75.329C147.632 78.6229 151.89 80.2696 156.48 80.2696C159.208 80.2696 161.395 79.6089 163.045 78.286C164.696 76.9642 165.521 75.2141 165.521 73.0326C165.521 70.9451 164.755 69.264 163.225 67.9886C161.694 66.7127 159.638 66.0751 157.055 66.0751C153.467 66.0751 150.383 67.257 147.8 69.6238L140.624 65.9357L141.773 41.7921H174.562V51.0461H151.675L151.244 59.8132C154.016 58.8382 156.84 58.3519 159.71 58.3519C164.97 58.3519 169.168 59.7307 172.3 62.4924C175.434 65.2521 177 68.9041 177 73.4504Z" fill="#253159"/>
<path fill-rule="evenodd" clip-rule="evenodd" d="M89.3376 27.1058H174.331V2.33447H77.9648L89.3376 27.1058Z" fill="url(#paint0_linear_382_1100)"/>
<path d="M5.02517 37.3233C4.6998 37.3233 4.40002 37.2706 4.12531 37.1656C3.85165 37.0611 3.61349 36.9123 3.4119 36.7201C3.21135 36.5279 3.05363 36.3034 2.93978 36.0459C2.82645 35.7884 2.76953 35.5048 2.76953 35.1961C2.76953 34.8869 2.82645 34.6039 2.93978 34.3464C3.05363 34.0889 3.21188 33.8644 3.41504 33.6717C3.61924 33.48 3.8574 33.3312 4.13159 33.2262C4.4063 33.1212 4.70607 33.069 5.03144 33.069C5.36046 33.069 5.66494 33.1233 5.9433 33.2324C6.22167 33.3411 6.45877 33.5024 6.65409 33.7165L6.25717 34.091C6.09475 33.9244 5.91196 33.8006 5.7088 33.7197C5.50459 33.6382 5.28733 33.5975 5.05597 33.5975C4.81626 33.5975 4.59325 33.6371 4.388 33.7165C4.18327 33.7959 4.00468 33.9067 3.85427 34.0493C3.70438 34.1918 3.58738 34.3611 3.5033 34.5569C3.42026 34.7533 3.379 34.9663 3.379 35.1961C3.379 35.4259 3.42026 35.639 3.5033 35.8348C3.58738 36.0312 3.70438 36.2005 3.85427 36.343C4.00468 36.4856 4.18327 36.5963 4.388 36.6757C4.59325 36.755 4.81626 36.7943 5.05597 36.7943C5.28733 36.7943 5.50459 36.7541 5.7088 36.6726C5.91196 36.5917 6.09475 36.4658 6.25717 36.2955L6.65409 36.67C6.45877 36.8836 6.22167 37.046 5.9433 37.1572C5.66494 37.2679 5.35889 37.3233 5.02517 37.3233Z" fill="#253159"/>
<path d="M8.07859 34.9107H10.2742V35.4157H8.07859V34.9107ZM8.13345 36.7584H10.6215V37.2755H7.52344V33.1163H10.5363V33.6332H8.13345V36.7584Z" fill="#253159"/>
<path d="M11.6094 37.2755V33.1163H12.1092L14.933 36.5329H14.6708V33.1163H15.2803V37.2755H14.7805L11.9561 33.8588H12.2194V37.2755H11.6094Z" fill="#253159"/>
<path d="M17.4097 37.2755V33.6332H15.9453V33.1163H19.4763V33.6332H18.0135V37.2755H17.4097Z" fill="#253159"/>
<path d="M22.9937 37.2755L21.909 35.7661H22.5613L23.6591 37.2755H22.9937ZM20.7501 35.7959L20.4759 35.505H21.7868C22.1774 35.505 22.4725 35.4225 22.6741 35.2586C22.8757 35.094 22.9754 34.8632 22.9754 34.5661C22.9754 34.2689 22.8757 34.0396 22.6741 33.8766C22.4725 33.7142 22.1774 33.6332 21.7868 33.6332H20.4759L20.7501 33.3361V35.7959ZM20.1406 37.2755V33.1163H21.8051C22.179 33.1163 22.4976 33.1737 22.7629 33.2886C23.0272 33.4035 23.2303 33.5701 23.3724 33.7874C23.5144 34.0057 23.586 34.2652 23.586 34.5661C23.586 34.8674 23.5144 35.1254 23.3724 35.3416C23.2303 35.5573 23.0272 35.7228 22.7629 35.8377C22.4976 35.9521 22.179 36.01 21.8051 36.01H20.4759L20.7501 35.737V37.2755H20.1406Z" fill="#253159"/>
<path d="M24.7522 36.2357L24.9178 35.7604H27.3197L27.4967 36.2357H24.7522ZM23.9297 37.2755L25.8631 33.1163H26.4663L28.406 37.2755H27.7652L26.0396 33.4489H26.2835L24.558 37.2755H23.9297Z" fill="#253159"/>
<path d="M29.0391 37.2755V33.1163H29.6491V36.7584H31.9601V37.2755H29.0391Z" fill="#253159"/>
<path d="M34.4754 36.2357L34.6399 35.7604H37.0434L37.2199 36.2357H34.4754ZM33.6523 37.2755L35.5852 33.1163H36.1895L38.1286 37.2755H37.4883L35.7623 33.4489H36.0067L34.2801 37.2755H33.6523Z" fill="#253159"/>
<path d="M40.0052 37.3233C39.6799 37.3233 39.3691 37.2748 39.0725 37.1776C38.7759 37.081 38.5419 36.9551 38.3711 36.8005L38.5962 36.3367C38.7597 36.4756 38.966 36.5906 39.2182 36.6815C39.471 36.7729 39.7331 36.8183 40.0052 36.8183C40.2533 36.8183 40.4549 36.7906 40.609 36.7353C40.763 36.6799 40.8774 36.6031 40.95 36.5065C41.0242 36.4093 41.0602 36.2992 41.0602 36.1765C41.0602 36.0339 41.0122 35.9189 40.9171 35.8317C40.8221 35.745 40.6972 35.6745 40.5447 35.6213C40.3928 35.5675 40.2251 35.521 40.0423 35.4813C39.859 35.4416 39.6752 35.3952 39.4898 35.3414C39.3054 35.2881 39.1362 35.2197 38.9842 35.1366C38.8317 35.0536 38.7085 34.9419 38.615 34.8009C38.521 34.6604 38.475 34.4791 38.475 34.2577C38.475 34.0436 38.5325 33.8461 38.6489 33.666C38.7638 33.4858 38.9435 33.3411 39.1853 33.2324C39.4266 33.1233 39.7352 33.069 40.1087 33.069C40.3572 33.069 40.6027 33.1008 40.8471 33.164C41.091 33.2272 41.3025 33.3186 41.4806 33.4372L41.2801 33.9124C41.0973 33.7938 40.9041 33.7077 40.7004 33.6539C40.4972 33.6007 40.3003 33.5741 40.1087 33.5741C39.8689 33.5741 39.6721 33.6032 39.5175 33.6633C39.3634 33.7223 39.2495 33.8018 39.179 33.9005C39.1075 33.9997 39.0725 34.1109 39.0725 34.2336C39.0725 34.3798 39.12 34.4969 39.2156 34.5841C39.3106 34.6713 39.4355 34.7408 39.5874 34.792C39.7399 34.8437 39.9076 34.8901 40.0904 34.9319C40.2732 34.9732 40.4581 35.0197 40.6424 35.0714C40.8278 35.1231 40.9965 35.1904 41.1485 35.2734C41.3015 35.3565 41.4237 35.4678 41.5177 35.6062C41.6117 35.7451 41.6577 35.9231 41.6577 36.1409C41.6577 36.3508 41.5992 36.5457 41.4806 36.7264C41.3626 36.9066 41.1814 37.0513 40.9354 37.1599C40.6894 37.269 40.3797 37.3233 40.0052 37.3233Z" fill="#253159"/>
<path d="M42.5508 33.1163H43.1613V37.2755H42.5508V33.1163Z" fill="#253159"/>
<path d="M44.6205 36.2357L44.785 35.7604H47.1879L47.365 36.2357H44.6205ZM43.7969 37.2755L45.7303 33.1163H46.3335L48.2737 37.2755H47.6334L45.9068 33.4489H46.1512L44.4252 37.2755H43.7969Z" fill="#253159"/>
<path d="M48.9023 37.2755V33.1163H49.4027L52.2265 36.5329H51.9644V33.1163H52.5738V37.2755H52.0735L49.2496 33.8588H49.5124V37.2755H48.9023Z" fill="#253159"/>
<path d="M55.6741 36.2357L55.8391 35.7604H58.2415L58.4186 36.2357H55.6741ZM54.8516 37.2755L56.785 33.1163H57.3882L59.3273 37.2755H58.687L56.9615 33.4489H57.2048L55.4798 37.2755H54.8516Z" fill="#253159"/>
<path d="M60.52 34.9107H62.7151V35.4157H60.52V34.9107ZM60.5749 36.7584H63.0629V37.2755H59.9648V33.1163H62.9772V33.6332H60.5749V36.7584Z" fill="#253159"/>
<path d="M65.2943 37.3233C64.9689 37.3233 64.6582 37.2748 64.3615 37.1776C64.0644 37.081 63.8309 36.9551 63.6602 36.8005L63.8853 36.3367C64.0487 36.4756 64.255 36.5906 64.5072 36.6815C64.7595 36.7729 65.0217 36.8183 65.2943 36.8183C65.5424 36.8183 65.744 36.7906 65.8986 36.7353C66.0521 36.6799 66.167 36.6031 66.2396 36.5065C66.3132 36.4093 66.3493 36.2992 66.3493 36.1765C66.3493 36.0339 66.3012 35.9189 66.2062 35.8317C66.1106 35.745 65.9868 35.6745 65.8338 35.6213C65.6818 35.5675 65.5142 35.521 65.3309 35.4813C65.1481 35.4416 64.9642 35.3952 64.7788 35.3414C64.5945 35.2881 64.4253 35.2197 64.2728 35.1366C64.1208 35.0536 63.9975 34.9419 63.9035 34.8009C63.8106 34.6604 63.7641 34.4791 63.7641 34.2577C63.7641 34.0436 63.8215 33.8461 63.938 33.666C64.0529 33.4858 64.232 33.3411 64.4744 33.2324C64.7156 33.1233 65.0243 33.069 65.3977 33.069C65.6463 33.069 65.8923 33.1008 66.1362 33.164C66.3796 33.2272 66.5911 33.3186 66.7702 33.4372L66.5691 33.9124C66.3858 33.7938 66.1931 33.7077 65.9899 33.6539C65.7863 33.6007 65.5894 33.5741 65.3977 33.5741C65.158 33.5741 64.9611 33.6032 64.8065 33.6633C64.6519 33.7223 64.5386 33.8018 64.4681 33.9005C64.3965 33.9997 64.3615 34.1109 64.3615 34.2336C64.3615 34.3798 64.4091 34.4969 64.5046 34.5841C64.6002 34.6713 64.7245 34.7408 64.8765 34.792C65.029 34.8437 65.1972 34.8901 65.3794 34.9319C65.5622 34.9732 65.7471 35.0197 65.9314 35.0714C66.1169 35.1231 66.285 35.1904 66.4375 35.2734C66.5905 35.3565 66.7133 35.4678 66.8068 35.6062C66.9008 35.7451 66.9473 35.9231 66.9473 36.1409C66.9473 36.3508 66.8882 36.5457 66.7702 36.7264C66.6516 36.9066 66.4704 37.0513 66.2245 37.1599C65.9785 37.269 65.6688 37.3233 65.2943 37.3233Z" fill="#253159"/>
<path d="M68.6235 37.2755V33.6332H67.1602V33.1163H70.6906V33.6332H69.2273V37.2755H68.6235Z" fill="#253159"/>
<path d="M74.413 33.1163H75.023V37.2755H74.413V33.1163ZM74.4673 35.4215H71.8999V34.905H74.4673V35.4215ZM71.9615 37.2755H71.3516V33.1163H71.9615V37.2755Z" fill="#253159"/>
<path d="M76.8598 34.9107H79.0549V35.4157H76.8598V34.9107ZM76.9152 36.7584H79.4027V37.2755H76.3047V33.1163H79.3171V33.6332H76.9152V36.7584Z" fill="#253159"/>
<path d="M81.2368 37.2755V33.6332H79.7734V33.1163H83.3044V33.6332H81.8411V37.2755H81.2368Z" fill="#253159"/>
<path d="M83.9727 33.1163H84.5816V37.2755H83.9727V33.1163Z" fill="#253159"/>
<path d="M87.7718 37.3233C87.4464 37.3233 87.1472 37.2706 86.8725 37.1656C86.5983 37.0611 86.3596 36.9123 86.1591 36.7201C85.9575 36.5279 85.7997 36.3034 85.6859 36.0459C85.5726 35.7884 85.5156 35.5048 85.5156 35.1961C85.5156 34.8869 85.5726 34.6039 85.6859 34.3464C85.7997 34.0889 85.958 33.8644 86.1617 33.6717C86.3653 33.48 86.604 33.3312 86.8787 33.2262C87.1524 33.1212 87.4522 33.069 87.7775 33.069C88.1066 33.069 88.411 33.1233 88.6899 33.2324C88.9677 33.3411 89.2044 33.5024 89.4002 33.7165L89.0033 34.091C88.8414 33.9244 88.658 33.8006 88.4549 33.7197C88.2512 33.6382 88.0335 33.5975 87.8021 33.5975C87.5624 33.5975 87.3399 33.6371 87.1346 33.7165C86.9294 33.7959 86.7508 33.9067 86.6009 34.0493C86.4505 34.1918 86.3335 34.3611 86.2505 34.5569C86.1669 34.7533 86.1251 34.9663 86.1251 35.1961C86.1251 35.4259 86.1669 35.639 86.2505 35.8348C86.3335 36.0312 86.4505 36.2005 86.6009 36.343C86.7508 36.4856 86.9294 36.5963 87.1346 36.6757C87.3399 36.755 87.5624 36.7943 87.8021 36.7943C88.0335 36.7943 88.2512 36.7541 88.4549 36.6726C88.658 36.5917 88.8414 36.4658 89.0033 36.2955L89.4002 36.67C89.2044 36.8836 88.9677 37.046 88.6899 37.1572C88.411 37.2679 88.105 37.3233 87.7718 37.3233Z" fill="#253159"/>
<path d="M91.5052 37.3233C91.1799 37.3233 90.8686 37.2748 90.5725 37.1776C90.2759 37.081 90.0419 36.9551 89.8711 36.8005L90.0967 36.3367C90.2597 36.4756 90.466 36.5906 90.7187 36.6815C90.971 36.7729 91.2331 36.8183 91.5052 36.8183C91.7528 36.8183 91.9539 36.7906 92.109 36.7353C92.2636 36.6799 92.3769 36.6031 92.4501 36.5065C92.5232 36.4093 92.5602 36.2992 92.5602 36.1765C92.5602 36.0339 92.5127 35.9189 92.4171 35.8317C92.321 35.745 92.1973 35.6745 92.0453 35.6213C91.8928 35.5675 91.7251 35.521 91.5423 35.4813C91.359 35.4416 91.1747 35.3952 90.9903 35.3414C90.8049 35.2881 90.6362 35.2197 90.4832 35.1366C90.3312 35.0536 90.208 34.9419 90.115 34.8009C90.021 34.6604 89.9745 34.4791 89.9745 34.2577C89.9745 34.0436 90.033 33.8461 90.1479 33.666C90.2639 33.4858 90.4435 33.3411 90.6848 33.2324C90.9271 33.1233 91.2347 33.069 91.6092 33.069C91.8567 33.069 92.1027 33.1008 92.3466 33.164C92.591 33.2272 92.8025 33.3186 92.9806 33.4372L92.7801 33.9124C92.5963 33.7938 92.4036 33.7077 92.2004 33.6539C91.9972 33.6007 91.7998 33.5741 91.6092 33.5741C91.3689 33.5741 91.1715 33.6032 91.017 33.6633C90.8629 33.7223 90.7501 33.8018 90.6785 33.9005C90.608 33.9997 90.5725 34.1109 90.5725 34.2336C90.5725 34.3798 90.6201 34.4969 90.7156 34.5841C90.8107 34.6713 90.935 34.7408 91.088 34.792C91.24 34.8437 91.4076 34.8901 91.5904 34.9319C91.7737 34.9732 91.957 35.0197 92.1429 35.0714C92.3273 35.1231 92.4965 35.1904 92.6485 35.2734C92.801 35.3565 92.9237 35.4678 93.0177 35.6062C93.1107 35.7451 93.1577 35.9231 93.1577 36.1409C93.1577 36.3508 93.0992 36.5457 92.9806 36.7264C92.8636 36.9066 92.6809 37.0513 92.4349 37.1599C92.1894 37.269 91.8787 37.3233 91.5052 37.3233Z" fill="#253159"/>
<path d="M95.6914 37.2755V33.1163H96.1912L98.1058 36.2597H97.8374L99.7285 33.1163H100.228L100.235 37.2755H99.6491L99.6428 34.0135H99.7828L98.0996 36.7705H97.8191L96.1244 34.0135H96.2763V37.2755H95.6914Z" fill="#253159"/>
<path d="M102.071 34.9107H104.266V35.4157H102.071V34.9107ZM102.126 36.7584H104.614V37.2755H101.516V33.1163H104.529V33.6332H102.126V36.7584Z" fill="#253159"/>
<path d="M106.211 36.7584H107.364C107.717 36.7584 108.024 36.6931 108.282 36.5626C108.54 36.4315 108.74 36.2487 108.882 36.0127C109.025 35.7771 109.095 35.505 109.095 35.1958C109.095 34.883 109.025 34.6094 108.882 34.3759C108.74 34.1419 108.54 33.9596 108.282 33.8291C108.024 33.6985 107.717 33.6332 107.364 33.6332H106.211V36.7584ZM105.602 37.2755V33.1163H107.401C107.856 33.1163 108.257 33.2035 108.605 33.3774C108.952 33.5518 109.223 33.7957 109.416 34.1086C109.609 34.4214 109.706 34.7838 109.706 35.1958C109.706 35.6079 109.609 35.9704 109.416 36.2832C109.223 36.596 108.952 36.8394 108.605 37.0138C108.257 37.1883 107.856 37.2755 107.401 37.2755H105.602Z" fill="#253159"/>
<path d="M110.637 33.1163H111.247V37.2755H110.637V33.1163Z" fill="#253159"/>
<path d="M114.437 37.3233C114.112 37.3233 113.812 37.2706 113.537 37.1656C113.262 37.0612 113.025 36.9123 112.823 36.7202C112.622 36.528 112.464 36.3034 112.35 36.0459C112.237 35.7884 112.18 35.5048 112.18 35.1961C112.18 34.8869 112.237 34.6039 112.35 34.3464C112.464 34.089 112.623 33.8644 112.827 33.6717C113.029 33.48 113.269 33.3312 113.543 33.2262C113.818 33.1212 114.117 33.069 114.443 33.069C114.772 33.069 115.076 33.1233 115.354 33.2324C115.632 33.3411 115.87 33.5024 116.065 33.7166L115.669 34.091C115.505 33.9244 115.323 33.8007 115.119 33.7197C114.916 33.6382 114.699 33.5975 114.468 33.5975C114.227 33.5975 114.005 33.6372 113.799 33.7166C113.594 33.7959 113.416 33.9067 113.265 34.0493C113.115 34.1919 112.998 34.3611 112.915 34.557C112.832 34.7533 112.79 34.9663 112.79 35.1961C112.79 35.4259 112.832 35.639 112.915 35.8349C112.998 36.0312 113.115 36.2005 113.265 36.343C113.416 36.4856 113.594 36.5963 113.799 36.6757C114.005 36.7551 114.227 36.7943 114.468 36.7943C114.699 36.7943 114.916 36.7541 115.119 36.6726C115.323 36.5917 115.505 36.4658 115.669 36.2955L116.065 36.67C115.87 36.8836 115.632 37.046 115.354 37.1572C115.076 37.268 114.77 37.3233 114.437 37.3233Z" fill="#253159"/>
<path d="M116.934 33.1163H117.544V37.2755H116.934V33.1163Z" fill="#253159"/>
<path d="M118.832 37.2755V33.1163H119.331L122.155 36.5329H121.893V33.1163H122.503V37.2755H122.003L119.179 33.8589H119.442V37.2755H118.832Z" fill="#253159"/>
<path d="M124.335 34.9107H126.531V35.4157H124.335V34.9107ZM124.391 36.7584H126.879V37.2755H123.781V33.1163H126.794V33.6332H124.391V36.7584Z" fill="#253159"/>
<path d="M131.416 37.3233C131.09 37.3233 130.791 37.2706 130.516 37.1656C130.243 37.0612 130.004 36.9123 129.803 36.7202C129.602 36.528 129.444 36.3034 129.331 36.0459C129.217 35.7884 129.16 35.5048 129.16 35.1961C129.16 34.8869 129.217 34.6039 129.331 34.3464C129.444 34.089 129.602 33.8644 129.806 33.6717C130.01 33.48 130.248 33.3312 130.522 33.2262C130.797 33.1212 131.097 33.069 131.422 33.069C131.751 33.069 132.056 33.1233 132.334 33.2324C132.613 33.3411 132.849 33.5024 133.045 33.7166L132.648 34.091C132.485 33.9244 132.303 33.8007 132.099 33.7197C131.896 33.6382 131.678 33.5975 131.447 33.5975C131.207 33.5975 130.984 33.6372 130.779 33.7166C130.573 33.7959 130.395 33.9067 130.245 34.0493C130.095 34.1919 129.978 34.3611 129.894 34.557C129.811 34.7533 129.77 34.9663 129.77 35.1961C129.77 35.4259 129.811 35.639 129.894 35.8349C129.978 36.0312 130.095 36.2005 130.245 36.343C130.395 36.4856 130.573 36.5963 130.779 36.6757C130.984 36.7551 131.207 36.7943 131.447 36.7943C131.678 36.7943 131.896 36.7541 132.099 36.6726C132.303 36.5917 132.485 36.4658 132.648 36.2955L133.045 36.67C132.849 36.8836 132.613 37.046 132.334 37.1572C132.056 37.268 131.749 37.3233 131.416 37.3233Z" fill="#253159"/>
<path d="M135.747 36.7943C135.983 36.7943 136.201 36.7551 136.402 36.6757C136.604 36.5963 136.778 36.4846 136.927 36.3399C137.076 36.1952 137.191 36.026 137.275 35.8317C137.358 35.6379 137.399 35.4259 137.399 35.1961C137.399 34.9663 137.358 34.7543 137.275 34.56C137.191 34.3663 137.076 34.1971 136.927 34.0524C136.778 33.9078 136.604 33.7959 136.402 33.7166C136.201 33.6372 135.983 33.598 135.747 33.598C135.507 33.598 135.286 33.6372 135.085 33.7166C134.884 33.7959 134.708 33.9078 134.557 34.0524C134.407 34.1971 134.291 34.3663 134.207 34.56C134.124 34.7543 134.082 34.9663 134.082 35.1961C134.082 35.4259 134.124 35.6379 134.207 35.8317C134.291 36.026 134.407 36.1952 134.557 36.3399C134.708 36.4846 134.884 36.5963 135.085 36.6757C135.286 36.7551 135.507 36.7943 135.747 36.7943ZM135.747 37.3233C135.422 37.3233 135.119 37.27 134.841 37.163C134.563 37.0559 134.322 36.9065 134.118 36.7143C133.915 36.5221 133.757 36.297 133.643 36.0401C133.53 35.7826 133.473 35.5011 133.473 35.1961C133.473 34.8911 133.53 34.6096 133.643 34.3521C133.757 34.0952 133.915 33.8702 134.118 33.678C134.322 33.4858 134.562 33.3363 134.838 33.2293C135.115 33.1222 135.418 33.069 135.747 33.069C136.072 33.069 136.372 33.1218 136.647 33.2267C136.921 33.3312 137.161 33.48 137.367 33.6717C137.571 33.8644 137.73 34.089 137.841 34.3464C137.954 34.6039 138.01 34.8869 138.01 35.1961C138.01 35.5048 137.954 35.7884 137.841 36.0459C137.73 36.3034 137.571 36.528 137.367 36.7202C137.161 36.9123 136.921 37.0612 136.647 37.1656C136.372 37.2706 136.072 37.3233 135.747 37.3233Z" fill="#253159"/>
<path d="M138.949 37.2755V33.1163H139.449L142.272 36.5329H142.01V33.1163H142.62V37.2755H142.12L139.296 33.8589H139.559V37.2755H138.949Z" fill="#253159"/>
<path d="M146.857 36.7175V35.1721H147.442V36.7943L146.857 36.7175ZM145.826 37.3233C145.496 37.3233 145.193 37.2706 144.917 37.1656C144.64 37.0612 144.401 36.9123 144.197 36.7202C143.994 36.528 143.836 36.3034 143.722 36.0459C143.608 35.7884 143.551 35.5048 143.551 35.1961C143.551 34.8869 143.608 34.6039 143.722 34.3464C143.836 34.089 143.995 33.8644 144.2 33.6717C144.406 33.48 144.646 33.3312 144.923 33.2267C145.199 33.1218 145.505 33.069 145.838 33.069C146.175 33.069 146.484 33.1222 146.765 33.2293C147.046 33.3363 147.283 33.4967 147.479 33.7108L147.1 34.0791C146.926 33.9125 146.736 33.7908 146.53 33.7135C146.325 33.6362 146.102 33.598 145.862 33.598C145.618 33.598 145.392 33.6372 145.182 33.7166C144.973 33.7959 144.792 33.9067 144.639 34.0493C144.487 34.1919 144.37 34.3611 144.286 34.557C144.203 34.7533 144.161 34.9663 144.161 35.1961C144.161 35.4217 144.203 35.6328 144.286 35.8292C144.37 36.025 144.487 36.1952 144.639 36.3399C144.792 36.4846 144.971 36.5963 145.179 36.6757C145.387 36.7551 145.612 36.7943 145.856 36.7943C146.084 36.7943 146.303 36.7598 146.512 36.6904C146.721 36.6214 146.915 36.5055 147.094 36.343L147.442 36.7943C147.23 36.9687 146.983 37.1008 146.701 37.1896C146.418 37.2789 146.127 37.3233 145.826 37.3233Z" fill="#253159"/>
<path d="M151.46 37.2755L150.374 35.7661H151.027L152.124 37.2755H151.46ZM149.215 35.7959L148.941 35.505H150.252C150.643 35.505 150.938 35.4225 151.139 35.2586C151.341 35.094 151.442 34.8632 151.442 34.5661C151.442 34.2689 151.341 34.0396 151.139 33.8766C150.938 33.7142 150.643 33.6332 150.252 33.6332H148.941L149.215 33.3361V35.7959ZM148.605 37.2755V33.1163H150.27C150.645 33.1163 150.964 33.1737 151.228 33.2886C151.492 33.4035 151.695 33.5701 151.838 33.7874C151.98 34.0057 152.051 34.2652 152.051 34.5661C152.051 34.8674 151.98 35.1254 151.838 35.3416C151.695 35.5573 151.492 35.7228 151.228 35.8377C150.964 35.9521 150.645 36.01 150.27 36.01H148.941L149.215 35.737V37.2755H148.605Z" fill="#253159"/>
<path d="M153.594 34.9107H155.789V35.4157H153.594V34.9107ZM153.649 36.7584H156.137V37.2755H153.039V33.1163H156.051V33.6332H153.649V36.7584Z" fill="#253159"/>
<path d="M158.372 37.3233C158.047 37.3233 157.736 37.2748 157.44 37.1776C157.143 37.081 156.909 36.9551 156.738 36.8005L156.963 36.3367C157.127 36.4756 157.333 36.5906 157.585 36.6815C157.838 36.7729 158.1 36.8183 158.372 36.8183C158.621 36.8183 158.821 36.7906 158.977 36.7353C159.13 36.6799 159.244 36.6031 159.318 36.5065C159.391 36.4093 159.427 36.2992 159.427 36.1765C159.427 36.0339 159.379 35.9189 159.284 35.8317C159.189 35.745 159.064 35.6745 158.912 35.6213C158.76 35.5675 158.592 35.521 158.41 35.4813C158.226 35.4416 158.042 35.3952 157.857 35.3414C157.673 35.2881 157.503 35.2197 157.351 35.1366C157.199 35.0536 157.076 34.9419 156.982 34.8009C156.888 34.6604 156.842 34.4791 156.842 34.2577C156.842 34.0436 156.9 33.8461 157.016 33.666C157.131 33.4858 157.31 33.3411 157.552 33.2324C157.794 33.1233 158.102 33.069 158.476 33.069C158.724 33.069 158.97 33.1008 159.214 33.164C159.458 33.2272 159.67 33.3186 159.848 33.4372L159.647 33.9124C159.464 33.7938 159.271 33.7077 159.068 33.6539C158.864 33.6007 158.668 33.5741 158.476 33.5741C158.236 33.5741 158.039 33.6032 157.885 33.6633C157.73 33.7223 157.617 33.8018 157.546 33.9005C157.475 33.9997 157.44 34.1109 157.44 34.2336C157.44 34.3798 157.487 34.4969 157.582 34.5841C157.678 34.6713 157.803 34.7408 157.955 34.792C158.107 34.8437 158.275 34.8901 158.458 34.9319C158.64 34.9732 158.825 35.0197 159.01 35.0714C159.195 35.1231 159.363 35.1904 159.516 35.2734C159.669 35.3565 159.791 35.4678 159.884 35.6062C159.978 35.7451 160.025 35.9231 160.025 36.1409C160.025 36.3508 159.966 36.5457 159.848 36.7264C159.73 36.9066 159.549 37.0513 159.303 37.1599C159.057 37.269 158.746 37.3233 158.372 37.3233Z" fill="#253159"/>
<path d="M162.158 37.3233C161.832 37.3233 161.522 37.2748 161.225 37.1776C160.928 37.081 160.694 36.9551 160.523 36.8005L160.749 36.3367C160.912 36.4756 161.119 36.5906 161.371 36.6815C161.623 36.7729 161.885 36.8183 162.158 36.8183C162.406 36.8183 162.607 36.7906 162.762 36.7353C162.915 36.6799 163.03 36.6031 163.102 36.5065C163.177 36.4093 163.213 36.2992 163.213 36.1765C163.213 36.0339 163.165 35.9189 163.069 35.8317C162.974 35.745 162.85 35.6745 162.697 35.6213C162.545 35.5675 162.377 35.521 162.195 35.4813C162.011 35.4416 161.828 35.3952 161.642 35.3414C161.458 35.2881 161.289 35.2197 161.137 35.1366C160.984 35.0536 160.861 34.9419 160.767 34.8009C160.673 34.6604 160.627 34.4791 160.627 34.2577C160.627 34.0436 160.685 33.8461 160.801 33.666C160.917 33.4858 161.095 33.3411 161.338 33.2324C161.579 33.1233 161.888 33.069 162.261 33.069C162.51 33.069 162.756 33.1008 162.999 33.164C163.243 33.2272 163.455 33.3186 163.633 33.4372L163.432 33.9124C163.25 33.7938 163.056 33.7077 162.853 33.6539C162.65 33.6007 162.453 33.5741 162.261 33.5741C162.021 33.5741 161.824 33.6032 161.67 33.6633C161.516 33.7223 161.402 33.8018 161.331 33.9005C161.26 33.9997 161.225 34.1109 161.225 34.2336C161.225 34.3798 161.272 34.4969 161.368 34.5841C161.463 34.6713 161.588 34.7408 161.74 34.792C161.892 34.8437 162.06 34.8901 162.243 34.9319C162.426 34.9732 162.61 35.0197 162.795 35.0714C162.98 35.1231 163.148 35.1904 163.301 35.2734C163.454 35.3565 163.577 35.4678 163.67 35.6062C163.764 35.7451 163.811 35.9231 163.811 36.1409C163.811 36.3508 163.752 36.5457 163.633 36.7264C163.515 36.9066 163.334 37.0513 163.088 37.1599C162.842 37.269 162.532 37.3233 162.158 37.3233Z" fill="#253159"/>
<path d="M17.0004 29.7855C14.7113 29.7855 12.6035 29.4184 10.6732 28.6831C8.74241 27.9482 7.07014 26.9084 5.65377 25.5631C4.23845 24.2183 3.12968 22.6447 2.3301 20.8413C1.52843 19.039 1.12891 17.056 1.12891 14.8928C1.12891 12.7296 1.52843 10.747 2.3301 8.9442C3.12968 7.14189 4.24577 5.56789 5.67519 4.22255C7.10566 2.87773 8.78576 1.8379 10.7155 1.10256C12.6458 0.368262 14.7547 0 17.0427 0C19.3594 0 21.496 0.38178 23.456 1.14428C25.4145 1.9073 27.08 3.03696 28.453 4.53427L25.6641 7.15547C24.5209 5.99083 23.2336 5.12393 21.8041 4.55518C20.3742 3.98749 18.8445 3.70284 17.2145 3.70284C15.5266 3.70284 13.9614 3.98016 12.5178 4.53427C11.0727 5.08944 9.82142 5.86558 8.76384 6.86414C7.70574 7.8627 6.88371 9.04821 6.29721 10.4207C5.71176 11.7937 5.41824 13.2847 5.41824 14.8928C5.41824 16.5013 5.71176 17.9919 6.29721 19.3649C6.88371 20.7374 7.70574 21.9229 8.76384 22.9215C9.82142 23.92 11.0727 24.6966 12.5178 25.2507C13.9614 25.8059 15.5266 26.0833 17.2145 26.0833C18.8445 26.0833 20.3742 25.7992 21.8041 25.2304C23.2336 24.6622 24.5209 23.7817 25.6641 22.5888L28.453 25.2095C27.08 26.7068 25.4145 27.8449 23.456 28.6209C21.496 29.3975 19.3443 29.7855 17.0004 29.7855Z" fill="#253159"/>
<path d="M35.1004 22.1713L36.2583 18.8434H53.1592L54.4027 22.1713H35.1004ZM29.3086 29.4516L42.9072 0.33197H47.1532L60.7941 29.4516H56.2901L44.1512 2.66123H45.8668L33.7269 29.4516H29.3086Z" fill="#253159"/>
<path d="M67.0569 22.1713L68.2148 18.8434H85.1151L86.3586 22.1713H67.0569ZM61.2656 29.4516L74.8632 0.33197H79.1102L92.7505 29.4516H88.2466L76.1072 2.66123H77.8228L65.6845 29.4516H61.2656Z" fill="#253159"/>
<path d="M97.207 29.4511V0.331963H100.725L114.194 22.3379H112.307L125.604 0.331963H129.121L129.164 29.4511H125.046L125.003 6.61315H125.99L114.151 25.9153H112.178L100.252 6.61315H101.326V29.4511H97.207Z" fill="#253159"/>
<path d="M151.602 29.7855C149.313 29.7855 147.205 29.4184 145.274 28.6831C143.344 27.9482 141.672 26.9084 140.256 25.5631C138.84 24.2183 137.732 22.6447 136.932 20.8413C136.131 19.039 135.73 17.056 135.73 14.8928C135.73 12.7296 136.131 10.747 136.932 8.9442C137.732 7.14189 138.847 5.56789 140.277 4.22255C141.707 2.87773 143.387 1.8379 145.318 1.10256C147.247 0.368262 149.357 0 151.644 0C153.961 0 156.098 0.38178 158.058 1.14428C160.016 1.9073 161.682 3.03696 163.055 4.53427L160.266 7.15547C159.123 5.99083 157.835 5.12393 156.406 4.55518C154.976 3.98749 153.447 3.70284 151.817 3.70284C150.128 3.70284 148.563 3.98016 147.119 4.53427C145.674 5.08944 144.424 5.86558 143.365 6.86414C142.307 7.8627 141.485 9.04821 140.899 10.4207C140.313 11.7937 140.02 13.2847 140.02 14.8928C140.02 16.5013 140.313 17.9919 140.899 19.3649C141.485 20.7374 142.307 21.9229 143.365 22.9215C144.424 23.92 145.674 24.6966 147.119 25.2507C148.563 25.8059 150.128 26.0833 151.817 26.0833C153.447 26.0833 154.976 25.7992 156.406 25.2304C157.835 24.6622 159.123 23.7817 160.266 22.5888L163.055 25.2095C161.682 26.7068 160.016 27.8449 158.058 28.6209C156.098 29.3975 153.946 29.7855 151.602 29.7855Z" fill="#253159"/>
<defs>
<linearGradient id="paint0_linear_382_1100" x1="84.795" y1="28.377" x2="176.032" y2="-1.7464" gradientUnits="userSpaceOnUse">
<stop stop-color="#C27C1C"/>
<stop offset="0.0117647" stop-color="#C27C1C"/>
<stop offset="0.0196078" stop-color="#C17C1C"/>
<stop offset="0.0313725" stop-color="#C17B1D"/>
<stop offset="0.0392157" stop-color="#C07B1D"/>
<stop offset="0.0509804" stop-color="#BF7B1E"/>
<stop offset="0.0588235" stop-color="#BF7A1E"/>
<stop offset="0.0705882" stop-color="#BE7A1E"/>
<stop offset="0.0784314" stop-color="#BD7A1F"/>
<stop offset="0.0901961" stop-color="#BD791F"/>
<stop offset="0.101961" stop-color="#BC7920"/>
<stop offset="0.109804" stop-color="#BB7920"/>
<stop offset="0.121569" stop-color="#BA7820"/>
<stop offset="0.129412" stop-color="#BA7821"/>
<stop offset="0.141176" stop-color="#B97821"/>
<stop offset="0.14902" stop-color="#B97822"/>
<stop offset="0.160784" stop-color="#B87722"/>
<stop offset="0.168627" stop-color="#B77722"/>
<stop offset="0.180392" stop-color="#B77723"/>
<stop offset="0.188235" stop-color="#B67623"/>
<stop offset="0.2" stop-color="#B67623"/>
<stop offset="0.211765" stop-color="#B57624"/>
<stop offset="0.219608" stop-color="#B47624"/>
<stop offset="0.231373" stop-color="#B47524"/>
<stop offset="0.239216" stop-color="#B37525"/>
<stop offset="0.25098" stop-color="#B37525"/>
<stop offset="0.258824" stop-color="#B27525"/>
<stop offset="0.270588" stop-color="#B27426"/>
<stop offset="0.278431" stop-color="#B17426"/>
<stop offset="0.290196" stop-color="#B17426"/>
<stop offset="0.301961" stop-color="#B17426"/>
<stop offset="0.309804" stop-color="#B17426"/>
<stop offset="0.321569" stop-color="#B17426"/>
<stop offset="0.329412" stop-color="#B17426"/>
<stop offset="0.341176" stop-color="#B17426"/>
<stop offset="0.34902" stop-color="#B17426"/>
<stop offset="0.360784" stop-color="#B17426"/>
<stop offset="0.368627" stop-color="#B17426"/>
<stop offset="0.380392" stop-color="#B17426"/>
<stop offset="0.388235" stop-color="#B17426"/>
<stop offset="0.4" stop-color="#B17426"/>
<stop offset="0.411765" stop-color="#B17426"/>
<stop offset="0.419608" stop-color="#B17426"/>
<stop offset="0.431373" stop-color="#B17426"/>
<stop offset="0.439216" stop-color="#B17426"/>
<stop offset="0.45098" stop-color="#B17426"/>
<stop offset="0.458824" stop-color="#B17426"/>
<stop offset="0.470588" stop-color="#B17426"/>
<stop offset="0.478431" stop-color="#B17426"/>
<stop offset="0.490196" stop-color="#B17426"/>
<stop offset="0.501961" stop-color="#B17426"/>
<stop offset="0.509804" stop-color="#B17426"/>
<stop offset="0.521569" stop-color="#B17426"/>
<stop offset="0.529412" stop-color="#B17426"/>
<stop offset="0.541176" stop-color="#B17426"/>
<stop offset="0.54902" stop-color="#B17426"/>
<stop offset="0.560784" stop-color="#B17426"/>
<stop offset="0.568627" stop-color="#B17426"/>
<stop offset="0.580392" stop-color="#B17426"/>
<stop offset="0.588235" stop-color="#B17426"/>
<stop offset="0.6" stop-color="#B17426"/>
<stop offset="0.611765" stop-color="#B17426"/>
<stop offset="0.619608" stop-color="#B17426"/>
<stop offset="0.631373" stop-color="#B17426"/>
<stop offset="0.639216" stop-color="#B17426"/>
<stop offset="0.65098" stop-color="#B17426"/>
<stop offset="0.658824" stop-color="#B17426"/>
<stop offset="0.670588" stop-color="#B17426"/>
<stop offset="0.678431" stop-color="#B17426"/>
<stop offset="0.690196" stop-color="#B17426"/>
<stop offset="0.701961" stop-color="#B17426"/>
<stop offset="0.709804" stop-color="#B17426"/>
<stop offset="0.721569" stop-color="#B17426"/>
<stop offset="0.729412" stop-color="#B17426"/>
<stop offset="0.741176" stop-color="#B17426"/>
<stop offset="0.74902" stop-color="#B17426"/>
<stop offset="0.760784" stop-color="#B17426"/>
<stop offset="0.768627" stop-color="#B17426"/>
<stop offset="0.780392" stop-color="#B17426"/>
<stop offset="0.788235" stop-color="#B17426"/>
<stop offset="0.8" stop-color="#B17426"/>
<stop offset="0.811765" stop-color="#B17426"/>
<stop offset="0.819608" stop-color="#B17426"/>
<stop offset="0.831373" stop-color="#B17426"/>
<stop offset="0.839216" stop-color="#B17426"/>
<stop offset="0.85098" stop-color="#B17426"/>
<stop offset="0.858824" stop-color="#B17426"/>
<stop offset="0.870588" stop-color="#B17426"/>
<stop offset="0.878431" stop-color="#B17426"/>
<stop offset="0.890196" stop-color="#B17426"/>
<stop offset="0.901961" stop-color="#B17426"/>
<stop offset="0.909804" stop-color="#B17426"/>
<stop offset="0.921569" stop-color="#B17426"/>
<stop offset="0.929412" stop-color="#B17426"/>
<stop offset="0.941176" stop-color="#B17426"/>
<stop offset="0.94902" stop-color="#B17426"/>
<stop offset="0.960784" stop-color="#B17426"/>
<stop offset="0.968627" stop-color="#B17426"/>
<stop offset="0.980392" stop-color="#B17426"/>
<stop offset="0.988235" stop-color="#B17426"/>
<stop offset="1" stop-color="#B17426"/>
</linearGradient>
</defs>
</svg>
